# https://github.com/mikedh/trimesh
v 0.00000000 0.00000000 0.00000000
v 0.00000000 0.00000000 0.02000000
v 0.00500000 -0.00866025 0.00000000
v 0.00500000 -0.00866025 0.02000000
v 0.00500000 0.00866025 0.00000000
v 0.00500000 0.00866025 0.02000000
v 0.01000000 0.00000000 0.00000000
v 0.01000000 0.00000000 0.02000000
v -0.01000000 0.00000000 0.00000000
v -0.01000000 0.00000000 0.02000000
v -0.00500000 -0.00866025 0.00000000
v -0.00500000 -0.00866025 0.02000000
v -0.00500000 0.00866025 0.00000000
v -0.00500000 0.00866025 0.02000000
f 1 7 3
f 4 3 7
f 1 5 7
f 2 4 8
f 2 8 6
f 8 5 6
f 4 7 8
f 8 7 5
f 1 3 11
f 1 11 9
f 10 9 11
f 2 12 4
f 12 3 4
f 2 10 12
f 12 11 3
f 10 11 12
f 1 13 5
f 6 5 13
f 1 9 13
f 2 6 14
f 2 14 10
f 14 9 10
f 6 13 14
f 14 13 9