# https://github.com/mikedh/trimesh
v -0.00600000 0.01039230 0.01000000
v -0.00600000 0.01039230 -0.01000000
v -0.00600000 -0.01039230 0.01000000
v -0.00600000 -0.01039230 -0.01000000
v 0.01200000 0.00000000 0.01000000
v 0.01200000 0.00000000 -0.01000000
v -0.01200000 0.00000000 0.01000000
v -0.01200000 0.00000000 -0.01000000
v 0.00600000 0.01039230 0.01000000
v 0.00600000 0.01039230 -0.01000000
v 0.00600000 -0.01039230 0.01000000
v 0.00600000 -0.01039230 -0.01000000
f 5 9 10
f 5 10 6
f 9 1 2
f 9 2 10
f 1 7 8
f 1 8 2
f 7 3 4
f 7 4 8
f 3 11 12
f 3 12 4
f 11 5 6
f 11 6 12
f 5 9 1
f 5 1 7
f 5 7 3
f 5 3 11
f 6 2 10
f 6 8 2
f 6 4 8
f 6 12 4