# https://github.com/mikedh/trimesh
v 0.00000000 0.00000000 0.00000000
v 0.00000000 0.00000000 0.20000000
v 0.60000000 0.00000000 0.00000000
v 0.60000000 0.00000000 0.20000000
v -0.09270510 -0.28531695 0.00000000
v -0.09270510 -0.28531695 0.20000000
v -0.09270510 0.28531695 0.00000000
v -0.09270510 0.28531695 0.20000000
v -0.30000000 0.00000000 0.00000000
v -0.30000000 0.00000000 0.20000000
v -0.48541020 0.35267115 0.00000000
v -0.48541020 0.35267115 0.20000000
v -0.48541020 -0.35267115 0.00000000
v -0.48541020 -0.35267115 0.20000000
v 0.24270510 0.17633558 0.00000000
v 0.24270510 0.17633558 0.20000000
v 0.24270510 -0.17633558 0.00000000
v 0.24270510 -0.17633558 0.20000000
v 0.18541020 -0.57063391 0.00000000
v 0.18541020 -0.57063391 0.20000000
v 0.18541020 0.57063391 0.00000000
v 0.18541020 0.57063391 0.20000000
f 2 4 16
f 2 16 22
f 2 22 8
f 2 8 12
f 2 12 10
f 2 10 14
f 2 14 6
f 2 6 20
f 2 20 18
f 2 18 4
f 1 3 15
f 1 15 21
f 1 21 7
f 1 7 11
f 1 11 9
f 1 9 13
f 1 13 5
f 1 5 19
f 1 19 17
f 1 17 3
f 4 3 15
f 4 15 16
f 16 15 21
f 16 21 22
f 22 21 7
f 22 7 8
f 8 7 11
f 8 11 12
f 12 11 9
f 12 9 10
f 10 9 13
f 10 13 14
f 14 13 5
f 14 5 6
f 6 5 19
f 6 19 20
f 20 19 17
f 20 17 18
f 18 17 3
f 18 3 4